<svg width="453" height="114" viewBox="0 0 453 114" fill="none" xmlns="http://www.w3.org/2000/svg">
<rect y="104" width="453" height="10" fill="#659B2F"/>
<rect x="443" y="23" width="10" height="91" fill="#659B2F"/>
<rect y="23" width="10" height="91" fill="#659B2F"/>
<rect y="13" width="70" height="10" fill="#659B2F"/>
<rect x="383" y="13" width="70" height="10" fill="#659B2F"/>
<path d="M117.94 6.67188V28H114.249V9.66016H107.716L107.335 17.9072C107.188 20.4854 106.871 22.4873 106.383 23.9131C105.904 25.3291 105.206 26.3643 104.288 27.0186C103.37 27.6729 102.14 28 100.597 28H99.6592V25.041L100.245 24.9971C101.095 24.9189 101.749 24.6211 102.208 24.1035C102.677 23.5859 103.028 22.8047 103.263 21.7598C103.507 20.7051 103.678 19.1572 103.775 17.1162L104.186 6.67188H117.94ZM126.056 14.8311H130.421C131.983 14.8311 133.346 15.0996 134.508 15.6367C135.67 16.1738 136.554 16.9355 137.159 17.9219C137.765 18.9082 138.067 20.0508 138.067 21.3496C138.067 23.3418 137.389 24.9434 136.031 26.1543C134.684 27.3652 132.843 27.9805 130.509 28H122.35V6.67188H126.056V14.8311ZM126.056 17.8047V25.041H130.406C131.656 25.041 132.628 24.7041 133.321 24.0303C134.024 23.3467 134.376 22.4434 134.376 21.3203C134.376 20.2461 134.034 19.3965 133.351 18.7715C132.667 18.1465 131.72 17.8242 130.509 17.8047H126.056ZM158.209 28H154.518V18.5225H144.981V28H141.275V6.67188H144.981V15.5488H154.518V6.67188H158.209V28ZM173.121 28V20.0312H168.99L164.874 28H160.904L165.665 18.9326C163.185 17.7607 161.944 15.8418 161.944 13.1758C161.944 11.1348 162.613 9.54785 163.951 8.41504C165.299 7.27246 167.174 6.69141 169.576 6.67188H176.827V28H173.121ZM165.636 13.3369C165.636 14.5381 165.973 15.4756 166.646 16.1494C167.32 16.8232 168.331 17.1602 169.679 17.1602H173.121V9.66016H169.679C168.312 9.66016 167.296 9.9873 166.632 10.6416C165.968 11.2959 165.636 12.1943 165.636 13.3369ZM198.17 28H194.479V18.5225H184.942V28H181.236V6.67188H184.942V15.5488H194.479V6.67188H198.17V28ZM219.586 17.8926C219.586 19.9824 219.225 21.8184 218.502 23.4004C217.779 24.9727 216.744 26.1836 215.396 27.0332C214.059 27.873 212.516 28.293 210.768 28.293C209.039 28.293 207.496 27.873 206.139 27.0332C204.791 26.1836 203.746 24.9775 203.004 23.415C202.271 21.8525 201.9 20.0508 201.891 18.0098V16.8086C201.891 14.7285 202.257 12.8926 202.989 11.3008C203.731 9.70898 204.771 8.49316 206.109 7.65332C207.457 6.80371 209 6.37891 210.738 6.37891C212.477 6.37891 214.015 6.79883 215.353 7.63867C216.7 8.46875 217.74 9.66992 218.473 11.2422C219.205 12.8047 219.576 14.626 219.586 16.7061V17.8926ZM215.88 16.7793C215.88 14.416 215.431 12.6045 214.532 11.3447C213.644 10.085 212.379 9.45508 210.738 9.45508C209.137 9.45508 207.882 10.085 206.974 11.3447C206.075 12.5947 205.616 14.3672 205.597 16.6621V17.8926C205.597 20.2363 206.051 22.0479 206.959 23.3271C207.877 24.6064 209.146 25.2461 210.768 25.2461C212.408 25.2461 213.668 24.6211 214.547 23.3711C215.436 22.1211 215.88 20.2949 215.88 17.8926V16.7793ZM235.743 18.4785H226.983V25.041H237.223V28H223.277V6.67188H237.12V9.66016H226.983V15.5488H235.743V18.4785ZM252.516 6.67188L258.668 23.0195L264.806 6.67188H269.596V28H265.904V20.9688L266.271 11.5645L259.972 28H257.32L251.036 11.5791L251.402 20.9688V28H247.711V6.67188H252.516ZM286.192 23.0342H277.931L276.202 28H272.35L280.406 6.67188H283.731L291.803 28H287.936L286.192 23.0342ZM278.971 20.0459H285.152L282.062 11.1982L278.971 20.0459ZM310.187 21.0566C309.972 23.332 309.132 25.1094 307.667 26.3887C306.202 27.6582 304.254 28.293 301.822 28.293C300.123 28.293 298.624 27.8926 297.325 27.0918C296.036 26.2812 295.04 25.1338 294.337 23.6494C293.634 22.165 293.268 20.4414 293.238 18.4785V16.4863C293.238 14.4746 293.595 12.7021 294.308 11.1689C295.021 9.63574 296.041 8.4541 297.369 7.62402C298.707 6.79395 300.25 6.37891 301.998 6.37891C304.352 6.37891 306.246 7.01855 307.682 8.29785C309.117 9.57715 309.952 11.3838 310.187 13.7178H306.495C306.319 12.1846 305.87 11.0811 305.147 10.4072C304.435 9.72363 303.385 9.38184 301.998 9.38184C300.387 9.38184 299.146 9.97266 298.277 11.1543C297.418 12.3262 296.979 14.0498 296.959 16.3252V18.2148C296.959 20.5195 297.369 22.2773 298.189 23.4883C299.02 24.6992 300.23 25.3047 301.822 25.3047C303.277 25.3047 304.371 24.9775 305.104 24.3232C305.836 23.6689 306.3 22.5801 306.495 21.0566H310.187ZM330.284 6.67188V28H326.593V9.66016H320.06L319.679 17.9072C319.532 20.4854 319.215 22.4873 318.727 23.9131C318.248 25.3291 317.55 26.3643 316.632 27.0186C315.714 27.6729 314.483 28 312.94 28H312.003V25.041L312.589 24.9971C313.438 24.9189 314.093 24.6211 314.552 24.1035C315.021 23.5859 315.372 22.8047 315.606 21.7598C315.851 20.7051 316.021 19.1572 316.119 17.1162L316.529 6.67188H330.284ZM351.773 17.8926C351.773 19.9824 351.412 21.8184 350.689 23.4004C349.967 24.9727 348.932 26.1836 347.584 27.0332C346.246 27.873 344.703 28.293 342.955 28.293C341.227 28.293 339.684 27.873 338.326 27.0332C336.979 26.1836 335.934 24.9775 335.191 23.415C334.459 21.8525 334.088 20.0508 334.078 18.0098V16.8086C334.078 14.7285 334.444 12.8926 335.177 11.3008C335.919 9.70898 336.959 8.49316 338.297 7.65332C339.645 6.80371 341.188 6.37891 342.926 6.37891C344.664 6.37891 346.202 6.79883 347.54 7.63867C348.888 8.46875 349.928 9.66992 350.66 11.2422C351.393 12.8047 351.764 14.626 351.773 16.7061V17.8926ZM348.067 16.7793C348.067 14.416 347.618 12.6045 346.72 11.3447C345.831 10.085 344.566 9.45508 342.926 9.45508C341.324 9.45508 340.069 10.085 339.161 11.3447C338.263 12.5947 337.804 14.3672 337.784 16.6621V17.8926C337.784 20.2363 338.238 22.0479 339.146 23.3271C340.064 24.6064 341.334 25.2461 342.955 25.2461C344.596 25.2461 345.855 24.6211 346.734 23.3711C347.623 22.1211 348.067 20.2949 348.067 17.8926V16.7793Z" fill="#659B2F"/>
<path d="M69.5391 83H63.6094L48.3984 58.7891V83H42.4688V48.875H48.3984L63.6562 73.1797V48.875H69.5391V83ZM96.0703 75.0547H82.8516L80.0859 83H73.9219L86.8125 48.875H92.1328L105.047 83H98.8594L96.0703 75.0547ZM84.5156 70.2734H94.4062L89.4609 56.1172L84.5156 70.2734ZM130.781 53.6562H120.141V83H114.258V53.6562H103.711V48.875H130.781V53.6562ZM160.242 48.875V71.6797C160.242 75.3047 159.078 78.1797 156.75 80.3047C154.438 82.4141 151.352 83.4688 147.492 83.4688C143.586 83.4688 140.484 82.4297 138.188 80.3516C135.891 78.2578 134.742 75.3594 134.742 71.6562V48.875H140.648V71.7031C140.648 73.9844 141.227 75.7266 142.383 76.9297C143.539 78.1328 145.242 78.7344 147.492 78.7344C152.055 78.7344 154.336 76.3281 154.336 71.5156V48.875H160.242ZM179.133 69.8516H172.523V83H166.594V48.875H178.594C182.531 48.875 185.57 49.7578 187.711 51.5234C189.852 53.2891 190.922 55.8438 190.922 59.1875C190.922 61.4688 190.367 63.3828 189.258 64.9297C188.164 66.4609 186.633 67.6406 184.664 68.4688L192.328 82.6953V83H185.977L179.133 69.8516ZM172.523 65.0938H178.617C180.617 65.0938 182.18 64.5938 183.305 63.5938C184.43 62.5781 184.992 61.1953 184.992 59.4453C184.992 57.6172 184.469 56.2031 183.422 55.2031C182.391 54.2031 180.844 53.6875 178.781 53.6562H172.523V65.0938ZM215.648 75.0547H202.43L199.664 83H193.5L206.391 48.875H211.711L224.625 83H218.438L215.648 75.0547ZM204.094 70.2734H213.984L209.039 56.1172L204.094 70.2734ZM246.398 78.2656H261.891V83H240.469V48.875H246.398V78.2656ZM272.695 83H266.789V48.875H272.695V83ZM307.055 83H301.125L285.914 58.7891V83H279.984V48.875H285.914L301.172 73.1797V48.875H307.055V83ZM338.016 53.6562H327.375V83H321.492V53.6562H310.945V48.875H338.016V53.6562ZM362.461 67.7656H348.445V78.2656H364.828V83H342.516V48.875H364.664V53.6562H348.445V63.0781H362.461V67.7656ZM375.914 83H370.008V48.875H375.914V83ZM401.039 74.2109C401.039 72.7109 400.508 71.5547 399.445 70.7422C398.398 69.9297 396.5 69.1094 393.75 68.2812C391 67.4531 388.812 66.5312 387.188 65.5156C384.078 63.5625 382.523 61.0156 382.523 57.875C382.523 55.125 383.641 52.8594 385.875 51.0781C388.125 49.2969 391.039 48.4062 394.617 48.4062C396.992 48.4062 399.109 48.8438 400.969 49.7188C402.828 50.5938 404.289 51.8438 405.352 53.4688C406.414 55.0781 406.945 56.8672 406.945 58.8359H401.039C401.039 57.0547 400.477 55.6641 399.352 54.6641C398.242 53.6484 396.648 53.1406 394.57 53.1406C392.633 53.1406 391.125 53.5547 390.047 54.3828C388.984 55.2109 388.453 56.3672 388.453 57.8516C388.453 59.1016 389.031 60.1484 390.188 60.9922C391.344 61.8203 393.25 62.6328 395.906 63.4297C398.562 64.2109 400.695 65.1094 402.305 66.125C403.914 67.125 405.094 68.2812 405.844 69.5938C406.594 70.8906 406.969 72.4141 406.969 74.1641C406.969 77.0078 405.875 79.2734 403.688 80.9609C401.516 82.6328 398.562 83.4688 394.828 83.4688C392.359 83.4688 390.086 83.0156 388.008 82.1094C385.945 81.1875 384.336 79.9219 383.18 78.3125C382.039 76.7031 381.469 74.8281 381.469 72.6875H387.398C387.398 74.625 388.039 76.125 389.32 77.1875C390.602 78.25 392.438 78.7812 394.828 78.7812C396.891 78.7812 398.438 78.3672 399.469 77.5391C400.516 76.6953 401.039 75.5859 401.039 74.2109Z" fill="#659B2F"/>
</svg>
